<svg width="100" height="100" viewBox="0 0 100 100" fill="none" xmlns="http://www.w3.org/2000/svg">
<g clip-path="url(#clip0_107_14180)">
<g clip-path="url(#clip1_107_14180)">
<g clip-path="url(#clip2_107_14180)">
<g clip-path="url(#clip3_107_14180)">
<g clip-path="url(#clip4_107_14180)">
<g clip-path="url(#clip5_107_14180)">
<g clip-path="url(#clip6_107_14180)">
<path d="M49.9998 79.2855C66.1739 79.2855 79.2855 66.1739 79.2855 49.9998C79.2855 33.8258 66.1739 20.7141 49.9998 20.7141C33.8258 20.7141 20.7141 33.8258 20.7141 49.9998C20.7141 66.1739 33.8258 79.2855 49.9998 79.2855Z" fill="#F2F9F2" fill-opacity="0.2"/>
<g clip-path="url(#clip7_107_14180)">
<path d="M54.9236 32.2146C53.1811 32.2146 51.5662 32.8946 50.3763 34.127L49.9938 34.467L49.6538 34.127C48.4214 32.8946 46.8065 32.2146 45.0641 32.2146C43.3641 32.2146 41.7067 32.8946 40.5168 34.0845C39.2844 35.3169 38.6469 36.9319 38.6469 38.6318C38.6469 40.3742 39.3268 41.9891 40.5593 43.179L49.3563 51.9761C49.5263 52.1461 49.7813 52.2736 50.0363 52.2736C50.2913 52.2736 50.5463 52.1886 50.7163 51.9761L59.4708 43.2215C60.7033 41.9891 61.3832 40.3742 61.3832 38.6743C61.3832 36.9319 60.7033 35.3169 59.5133 34.127C58.2384 32.8946 56.6235 32.2146 54.9236 32.2146ZM45.0216 36.5494C43.8741 36.5494 42.9392 37.4843 42.9392 38.6318C42.9392 39.1418 42.5142 39.5667 42.0042 39.5667C41.4942 39.5667 41.0693 39.1418 41.0693 38.6318C41.0693 36.4219 42.8542 34.637 45.0641 34.637C45.574 34.637 45.999 35.062 45.999 35.5719C45.9565 36.1244 45.5315 36.5494 45.0216 36.5494ZM30.4448 52.6136L29.3824 42.2441C29.3399 41.7341 29.5098 41.2241 29.8923 40.8842C30.3598 40.5017 31.1248 40.3742 31.6772 41.0117C32.0597 41.4791 32.2722 42.8816 32.3147 43.264C32.5272 44.624 32.7822 46.5789 32.8247 47.9388C32.8247 48.0238 32.8247 48.1513 32.8247 48.2363C32.8672 48.8313 32.9947 49.3837 33.2497 49.9362C34.6521 52.9536 37.4144 56.7359 37.4144 56.7359L37.5844 56.9484C37.7119 57.1183 37.9244 57.1608 38.0944 57.0758C38.3069 56.9484 38.3494 56.6934 38.2644 56.5234L34.6096 50.5312C34.2271 49.8512 34.4396 48.9163 35.1621 48.4913C35.8845 48.0663 36.8195 48.2788 37.202 48.9588L41.0268 53.8885C41.2818 54.2285 41.7492 54.6535 42.0892 54.9085C45.5315 57.3733 45.999 59.8807 46.2965 61.1981C46.2965 61.1981 46.339 61.4956 46.339 61.9206C46.339 62.2606 46.339 62.6856 46.254 63.1105L46.0415 67.2328C46.0415 67.5303 45.7865 67.7853 45.489 67.7853L39.0294 67.7428C38.7319 67.7428 38.4769 67.4878 38.4769 67.1903L38.3494 63.7905L32.2297 56.3534C31.3373 55.3759 30.6998 54.3135 30.5298 52.9961L30.4448 52.6136ZM34.2271 42.7966C34.5246 43.859 34.8646 45.8564 35.0346 46.9614C35.0346 46.9614 35.0346 47.0039 34.9921 47.0039C34.7796 47.0889 34.6096 47.1738 34.3971 47.2588C34.2271 47.3438 34.0996 47.4713 33.9721 47.5563C33.9721 47.4288 33.9721 47.3438 33.9721 47.2163C33.9296 46.1114 33.6746 43.9865 33.4621 42.7966C33.4196 42.4566 33.3347 42.0741 33.2072 41.6916C33.8021 41.9041 34.0996 42.2866 34.2271 42.7966ZM36.267 44.284C36.437 44.9215 36.9045 46.3239 36.9895 47.0039C36.692 46.8764 36.3945 46.8339 36.0545 46.8339C36.0545 46.7914 36.0545 46.7489 36.0545 46.7064L36.012 46.1539C35.927 45.3889 35.4595 43.9865 35.2896 43.179C35.842 43.3915 36.1395 43.774 36.267 44.284ZM64.8256 48.4913C65.548 48.9163 65.7605 49.8937 65.378 50.5312L61.7232 56.5234C61.5957 56.7359 61.6807 56.9908 61.8932 57.0758C62.0632 57.1608 62.3182 57.1183 62.4032 56.9484L62.5732 56.7359C62.5732 56.7359 65.3355 52.9536 66.738 49.9362C66.993 49.3837 67.1204 48.8313 67.1629 48.2363C67.1629 48.1513 67.1629 48.0238 67.1629 47.9388C67.2054 46.5789 67.4179 44.624 67.6729 43.264C67.7579 42.8816 67.9279 41.4791 68.3104 41.0117C68.8629 40.3742 69.6278 40.5017 70.0953 40.8842C70.4778 41.2241 70.6903 41.7341 70.6053 42.2441L69.5428 52.6136L69.5003 52.9961C69.2878 54.3135 68.6929 55.3759 67.8004 56.3534L61.6382 63.748L61.5107 67.1478C61.5107 67.4453 61.2557 67.7003 60.9583 67.7003L54.4986 67.7428C54.2011 67.7428 53.9461 67.4878 53.9461 67.1903L53.7336 63.068C53.6911 62.6431 53.6486 62.2181 53.6486 61.8781C53.6486 61.4531 53.6911 61.1556 53.6911 61.1556C53.9886 59.8807 54.4561 57.3733 57.8984 54.866C58.2384 54.611 58.7059 54.1435 58.9609 53.846L62.7857 48.9163C63.1256 48.2788 64.1031 48.0238 64.8256 48.4913ZM65.548 47.2588C65.378 47.1313 65.1655 47.0464 64.9531 47.0039C64.9531 47.0039 64.9531 46.9614 64.9106 46.9614C65.0381 45.8989 65.4205 43.859 65.718 42.7966C65.8455 42.2866 66.1855 41.9041 66.6955 41.6916C66.568 42.0741 66.5255 42.4141 66.4405 42.7966C66.228 43.9865 65.973 46.0689 65.9305 47.2163C65.9305 47.3438 65.9305 47.4288 65.9305 47.5563C65.8455 47.4713 65.718 47.3438 65.548 47.2588ZM63.8906 46.6639C63.8906 46.7064 63.8906 46.7489 63.8906 46.7914C63.5931 46.7914 63.2531 46.8764 62.9557 46.9614C63.0407 46.2814 63.5081 44.879 63.6781 44.2415C63.8056 43.7315 64.1031 43.349 64.6556 43.179C64.4856 43.944 64.0606 45.3889 63.9331 46.1539L63.8906 46.6639Z" fill="white"/>
</g>
</g>
<path d="M15.2758 30.1347C15.0751 30.6308 14.799 31.019 14.4487 31.2997C14.1001 31.5812 13.6829 31.8287 13.1972 32.0415C12.6383 32.2637 11.9862 32.5404 11.2408 32.8726C10.8751 33.0183 10.554 33.1872 10.2776 33.3794C9.99831 33.5729 9.74688 33.8151 9.52331 34.1062C9.29973 34.3972 9.08973 34.7851 8.89366 35.2697L8.60581 35.9804L12.1494 37.4158L11.3394 39.4147L3.64831 36.2997L2.37866 35.9594L3.24902 33.8108L7.12473 35.3805L7.46759 34.5337C7.54902 34.3322 7.59152 34.1547 7.59438 34.0012C7.59652 33.8501 7.56438 33.6965 7.49866 33.5412C7.33009 33.1429 7.10795 32.6769 6.83188 32.1422C6.55402 31.6069 6.26152 31.0751 5.95509 30.5462C5.64652 30.0165 5.37152 29.5562 5.13081 29.1647L6.12473 26.7104L6.77973 27.6987C6.95723 28.1004 7.15223 28.5322 7.36438 28.9947C7.57759 29.4547 7.78545 29.9087 7.98795 30.3569C8.18902 30.8019 8.36152 31.2001 8.50509 31.5519C8.6508 31.9047 8.75438 32.1644 8.8158 32.3312C9.01688 32.0954 9.23438 31.8926 9.46866 31.7219C9.70259 31.5512 10.0233 31.3551 10.4297 31.1333C10.7333 30.9626 11.0394 30.8019 11.3483 30.6508C11.6569 30.5001 12.0204 30.3276 12.439 30.134C12.9058 29.9108 13.2776 29.6733 13.5544 29.4222C13.8322 29.1687 14.0362 28.9422 14.1662 28.7422C14.294 28.5415 14.3697 28.4112 14.394 28.3512L15.4972 29.1497C15.5158 29.1933 15.5122 29.2976 15.4865 29.4622C15.4601 29.6294 15.3894 29.8537 15.2758 30.1347Z" fill="#F2F9F2"/>
<path d="M17.9569 25.7986L16.8347 27.4446L9.35936 22.3486L8.18579 21.7482L9.40079 19.9661L17.9569 25.7986Z" fill="#F2F9F2"/>
<path d="M21.7829 21.7535L21.1904 22.3417C20.8125 22.7171 20.4668 22.9606 20.1539 23.0728C19.8411 23.1813 19.5639 23.2024 19.3229 23.1356C19.08 23.0706 18.865 22.9624 18.6779 22.8117C18.4893 22.6624 18.3257 22.5181 18.1879 22.3792L14.5046 18.6696L15.9207 17.2635L19.6268 20.996C19.7868 21.1738 19.9611 21.2378 20.1507 21.1878C20.3382 21.1396 20.5018 21.0463 20.6407 20.9085L22.9364 18.6288C23.1061 18.4606 23.1907 18.346 23.1911 18.2849C23.1929 18.2224 23.1089 18.1056 22.9389 17.9346L19.1193 14.0874L20.5329 12.6838L25.6882 17.876L24.7371 18.8199L24.0675 19.0253C23.8179 19.3942 23.5064 19.8113 23.1332 20.2763C22.7582 20.7396 22.3082 21.2321 21.7829 21.7535Z" fill="#F2F9F2"/>
<path d="M33.2958 13.4835L29.2797 15.7717C28.6447 16.1335 28.1765 16.3564 27.8751 16.4399C27.5715 16.5249 27.4008 16.5342 27.363 16.4678L27.183 15.1603C27.4733 15.0331 27.9944 14.7778 28.7458 14.3931C29.4972 14.0089 30.4126 13.5092 31.4922 12.8946L32.2019 12.4899C32.4383 12.3553 32.5512 12.2056 32.5405 12.0417C32.5287 11.8806 32.4605 11.6914 32.3362 11.4735C32.2119 11.2556 32.0769 11.1003 31.9305 11.0078C31.7855 10.9171 31.604 10.9342 31.3862 11.0581L27.8962 13.0464C27.234 13.4235 26.684 13.5706 26.2465 13.4874C25.8108 13.4031 25.4497 13.1096 25.1637 12.6074L24.8408 12.041C24.7651 11.9081 24.6908 11.7442 24.6183 11.5492C24.5422 11.3531 24.5101 11.1324 24.5212 10.8867C24.5337 10.6431 24.6337 10.3896 24.8219 10.126C25.0097 9.86207 25.3308 9.601 25.7855 9.34171L29.7019 7.11028C30.2683 6.78743 30.689 6.59171 30.9633 6.5235C31.2376 6.45493 31.394 6.45421 31.4319 6.52064L31.8965 7.66207C31.6051 7.79243 31.0815 8.05064 30.3258 8.43743C29.568 8.82528 28.6547 9.3235 27.5858 9.93243L26.8762 10.3367C26.6397 10.4714 26.5272 10.6192 26.539 10.7803C26.5501 10.9446 26.604 11.1117 26.7012 11.2821C26.804 11.4628 26.9205 11.5942 27.0501 11.6771C27.1776 11.761 27.3597 11.7356 27.5962 11.6006L31.089 9.61064C31.7322 9.24421 32.2797 9.10671 32.7308 9.19886C33.1851 9.29171 33.5283 9.54171 33.7601 9.9485L34.2372 10.786C34.3344 10.9564 34.4251 11.1421 34.5101 11.3442C34.5947 11.546 34.6276 11.7624 34.608 11.9935C34.5883 12.2246 34.4805 12.4646 34.2844 12.7142C34.0883 12.9635 33.7587 13.2199 33.2958 13.4835Z" fill="#F2F9F2"/>
<path d="M40.5394 10.8501L40.0537 10.9897C39.2572 11.2193 38.6651 11.2086 38.2769 10.9576C37.8865 10.7072 37.5951 10.2479 37.4026 9.58006L36.344 5.90649L35.0562 6.27756L34.6672 4.92791L35.3283 4.7372C35.5258 4.68041 35.6601 4.60791 35.7319 4.52041C35.803 4.43041 35.8319 4.28541 35.819 4.08506L35.648 2.3147L37.249 1.85327L37.8694 4.00506L41.1329 3.06434L41.5219 4.41399L38.2583 5.3547L39.3208 9.0422C39.3962 9.30399 39.5094 9.45899 39.6601 9.5072C39.8079 9.55399 40.0079 9.54113 40.2604 9.46863L42.474 8.83041L42.9726 9.9772C42.7615 10.0729 42.4362 10.204 41.9969 10.3701C41.5576 10.5365 41.0719 10.6965 40.5394 10.8501Z" fill="#F2F9F2"/>
<path d="M47.4897 9.86857L45.3333 9.9275L45.1072 1.63214L44.9104 0.332857L47.3925 0.265L51.2597 6.69393L54.8997 0.0603571L57.1061 0L57.3679 9.59893L55.2118 9.65786L55.0454 3.56893L54.8665 3.57393L54.2675 5.00964L52.3125 8.75821L50.3354 8.8125L48.1786 5.17571L47.4883 3.775L47.3233 3.77964L47.4897 9.86857Z" fill="#F2F9F2"/>
<path d="M64.7545 11.8688L61.6102 10.9277C61.0884 10.7717 60.707 10.5838 60.4659 10.3649C60.2256 10.1435 60.0759 9.91025 60.0166 9.66561C59.9599 9.42168 59.952 9.18132 59.9934 8.94453C60.0366 8.70811 60.0863 8.49596 60.1424 8.30846L61.0424 5.30132C61.0888 5.14561 61.1584 4.95954 61.2506 4.74275C61.3452 4.52668 61.4849 4.32668 61.6695 4.14275C61.8559 3.96168 62.1138 3.84061 62.4438 3.77954C62.7738 3.71882 63.1949 3.76489 63.7074 3.91846L67.0716 4.92489C67.7606 5.13096 68.2799 5.35739 68.6299 5.60454C68.982 5.85204 69.1959 6.14561 69.2716 6.48453C69.3466 6.82596 69.3106 7.24168 69.1638 7.73168L68.4706 10.0485L65.7313 9.22882C64.7931 8.94811 64.0349 8.69882 63.4566 8.48096C62.8809 8.26382 62.4952 8.11953 62.2995 8.04882L62.0416 8.91025C61.9056 9.32346 62.0938 9.60668 62.6066 9.75989L63.4031 9.99846C63.9659 10.167 64.5188 10.3235 65.0613 10.4685C65.6038 10.6135 66.1031 10.7402 66.5591 10.8492C67.0152 10.9581 67.3816 11.0417 67.6588 11.0995L67.9816 12.307C67.8852 12.6295 66.8091 12.4835 64.7545 11.8688ZM62.9602 5.84168L62.6602 6.84382L66.9645 8.13204L67.2645 7.12953C67.3266 6.92132 67.3463 6.76882 67.3231 6.67203C67.3027 6.57382 67.1799 6.47954 66.9549 6.38989C66.732 6.30096 66.3438 6.17346 65.7902 6.00775L63.8988 5.44168C63.3977 5.29168 63.0849 5.42489 62.9602 5.84168Z" fill="#F2F9F2"/>
<path d="M71.9784 15.2742L71.2802 14.8499C70.8148 14.5671 70.493 14.2892 70.3152 14.016C70.1384 13.741 70.0523 13.4778 70.0573 13.2264C70.0641 12.976 70.1173 12.7414 70.2166 12.5224C70.318 12.3046 70.4198 12.1121 70.5216 11.9446L72.1513 9.26208C72.2355 9.12315 72.3498 8.96065 72.4938 8.77422C72.6398 8.58922 72.8255 8.43065 73.0505 8.29922C73.2766 8.17101 73.557 8.11922 73.8916 8.14351C74.2263 8.16779 74.622 8.31887 75.0795 8.59708L75.7898 9.02851C76.6452 9.54815 77.3263 9.98422 77.833 10.3371C78.3398 10.6896 78.7209 10.9689 78.9763 11.1742L80.647 8.42458L82.3495 9.45887L76.9727 18.3085L75.8305 17.6146L75.4548 17.0046C75.023 16.8317 74.5148 16.6082 73.9298 16.3339C73.3455 16.0628 72.6952 15.7096 71.9784 15.2742ZM72.5395 13.9714L75.5677 15.8114C75.7638 15.9303 75.8995 15.9807 75.9748 15.9624C76.0484 15.9428 76.1413 15.8399 76.2545 15.6542L78.2805 12.3196C77.9752 12.1089 77.588 11.8446 77.1191 11.526C76.6491 11.2096 76.1391 10.8846 75.5902 10.5507L74.8798 10.1192C74.4327 9.84744 74.0963 9.89744 73.8705 10.2689L72.2073 13.0067C71.9816 13.3782 72.0923 13.6999 72.5395 13.9714Z" fill="#F2F9F2"/>
<path d="M85.4561 14.8046C85.1586 14.5318 84.9979 14.2725 84.9736 14.0268C84.9461 13.781 85.0614 13.5175 85.32 13.2357C85.5846 12.9471 85.8375 12.806 86.0775 12.8125C86.3161 12.8175 86.5875 12.9596 86.8925 13.2389C87.1971 13.5182 87.3646 13.7789 87.3954 14.021C87.4243 14.2614 87.3064 14.526 87.0414 14.8146C86.7911 15.0875 86.5411 15.2243 86.2911 15.225C86.0393 15.2239 85.7607 15.0839 85.4561 14.8046ZM80.55 21.6278L79.0818 20.2814L84.0271 14.8893L85.4954 16.2357L80.55 21.6278Z" fill="#F2F9F2"/>
<path d="M85.4656 27.9597L83.5213 25.3157C83.1988 24.8772 83.007 24.4975 82.9463 24.1775C82.8877 23.8561 82.9084 23.5797 83.0084 23.3489C83.1098 23.12 83.2484 22.9232 83.4241 22.7586C83.6009 22.5957 83.7684 22.4564 83.9259 22.3404L86.4545 20.4811C86.5852 20.385 86.7527 20.2779 86.957 20.1604C87.1627 20.0447 87.3945 19.9689 87.6531 19.9332C87.9109 19.9007 88.1898 19.9597 88.4898 20.1093C88.7898 20.2593 89.0984 20.5497 89.4152 20.9811L90.7591 22.8082C91.5659 23.905 92.1102 24.7039 92.3927 25.2047C92.6745 25.7089 92.7848 25.9836 92.7234 26.0293L91.5291 26.4982C91.3666 26.2411 91.1573 25.9161 90.9013 25.5232C90.6452 25.1304 90.3638 24.7118 90.0573 24.2672C89.7523 23.8243 89.4477 23.3961 89.1434 22.9822L88.6509 22.3125C88.3409 21.8911 88.0109 21.8093 87.6609 22.0668L85.0802 23.9647C84.7231 24.2125 84.7027 24.5522 85.0198 24.9829L85.5123 25.6525C85.8606 26.1257 86.2077 26.5836 86.5538 27.0261C86.8998 27.4682 87.222 27.8704 87.5206 28.2322C87.8191 28.5936 88.0616 28.8811 88.2477 29.0939L87.7788 30.2525C87.5073 30.4522 86.7363 29.6879 85.4656 27.9597Z" fill="#F2F9F2"/>
<path d="M90.4054 37.9985L88.6472 33.7238C88.369 33.0478 88.2076 32.5549 88.1629 32.2453C88.1172 31.9335 88.1297 31.7631 88.2004 31.7338L89.5204 31.7217C89.6093 32.026 89.7968 32.5753 90.0822 33.3699C90.3676 34.1642 90.7465 35.1356 91.2193 36.2842L91.5301 37.0399C91.6336 37.2917 91.7676 37.4228 91.9318 37.4324C92.0929 37.441 92.2893 37.3978 92.5215 37.3024C92.7533 37.207 92.9247 37.0928 93.035 36.9592C93.1433 36.8267 93.1497 36.6445 93.0543 36.4128L91.5261 32.6981C91.2361 31.9935 91.1604 31.4292 91.2986 31.0056C91.4379 30.5842 91.7747 30.2635 92.3093 30.0438L92.9126 29.7956C93.054 29.7374 93.2261 29.6849 93.4286 29.6374C93.6326 29.587 93.8558 29.5831 94.0979 29.6256C94.3379 29.6688 94.5768 29.8006 94.8143 30.0206C95.0522 30.2406 95.2704 30.5924 95.4693 31.076L97.1843 35.2445C97.4326 35.8478 97.5729 36.2895 97.6058 36.5706C97.6386 36.8517 97.6197 37.0067 97.549 37.0356L96.3576 37.3513C96.2654 37.0456 96.0758 36.4935 95.7886 35.6945C95.5004 34.8935 95.1222 33.9242 94.6543 32.7867L94.3436 32.0313C94.24 31.7795 94.1075 31.6492 93.9465 31.6406C93.7822 31.6306 93.6097 31.6631 93.4283 31.7374C93.2361 31.8163 93.0908 31.9149 92.9922 32.0331C92.8925 32.1488 92.8947 32.3328 92.9983 32.5845L94.5276 36.3024C94.8093 36.987 94.8758 37.5474 94.7272 37.9835C94.5772 38.4224 94.2858 38.731 93.8525 38.9088L92.9611 39.2756C92.78 39.3503 92.584 39.4167 92.3729 39.4749C92.1618 39.5335 91.9429 39.5381 91.7161 39.4892C91.4893 39.4403 91.2651 39.3028 91.0429 39.0767C90.8208 38.8503 90.6083 38.491 90.4054 37.9985Z" fill="#F2F9F2"/>
<path d="M4.72046 51.1425C4.72046 50.48 5.2576 49.9429 5.9201 49.9429C6.5826 49.9429 7.11974 50.48 7.11974 51.1425C7.11974 51.805 6.5826 52.3422 5.9201 52.3418C5.2576 52.3418 4.72046 51.8047 4.72046 51.1425Z" fill="#F2F9F2"/>
<path d="M95.0146 51.1425C95.0146 50.48 95.5518 49.9429 96.2143 49.9429C96.8768 49.9429 97.4139 50.48 97.4139 51.1425C97.4139 51.805 96.8768 52.3422 96.2143 52.3418C95.5518 52.3418 95.0146 51.8047 95.0146 51.1425Z" fill="#F2F9F2"/>
<path d="M8.18869 75.0204C7.98797 74.5243 7.91583 74.0536 7.97226 73.6083C8.02655 73.1636 8.15405 72.6958 8.35476 72.2047C8.60155 71.6561 8.87726 71.0036 9.18119 70.2461C9.34226 69.8872 9.45547 69.5422 9.52012 69.2122C9.58619 68.8786 9.59797 68.5297 9.55619 68.1654C9.5144 67.8011 9.39512 67.3765 9.19869 66.8915L8.91083 66.1808L5.36726 67.6161L4.55762 65.6168L12.249 62.5015L13.3973 61.8625L14.2676 64.0111L10.3919 65.5808L10.7351 66.4275C10.8165 66.629 10.9098 66.7858 11.0144 66.8983C11.1183 67.0083 11.248 67.0961 11.4037 67.1622C11.8019 67.3308 12.2858 67.5111 12.8558 67.7026C13.428 67.8936 14.008 68.0722 14.5958 68.2386C15.1862 68.4043 15.7037 68.5436 16.1494 68.6572L17.1433 71.1115L15.9851 70.8576C15.578 70.6926 15.1376 70.5179 14.6637 70.3336C14.1905 70.1515 13.7251 69.9701 13.268 69.7893C12.8137 69.6101 12.413 69.4436 12.0648 69.2911C11.7144 69.1393 11.4594 69.0247 11.2994 68.9475C11.319 69.2565 11.304 69.554 11.2548 69.8393C11.2055 70.1247 11.1119 70.4886 10.974 70.9311C10.8748 71.265 10.7669 71.5936 10.6505 71.9165C10.534 72.2393 10.3926 72.6161 10.2265 73.0468C10.0469 73.5318 9.94476 73.9611 9.92083 74.3343C9.89762 74.7097 9.90905 75.0143 9.95476 75.2483C10.0026 75.4815 10.039 75.6279 10.063 75.6879L8.71512 75.8818C8.67155 75.8633 8.60155 75.7861 8.50547 75.6501C8.40833 75.5115 8.30262 75.3018 8.18869 75.0204Z" fill="#F2F9F2"/>
<path d="M11.9112 80.6074L10.7891 78.9614L18.2644 73.8653L19.2523 72.9924L20.4673 74.7749L11.9112 80.6074Z" fill="#F2F9F2"/>
<path d="M16.6273 85.7233L16.0352 85.1351C15.6573 84.7598 15.4109 84.4162 15.2966 84.1041C15.1856 83.7919 15.1627 83.5151 15.2277 83.2733C15.2909 83.0298 15.3973 82.8141 15.5473 82.6262C15.6952 82.4366 15.8384 82.2723 15.9763 82.133L19.6595 78.4233L21.0759 79.8298L17.3698 83.5619C17.1931 83.723 17.1302 83.898 17.1816 84.0873C17.2313 84.2744 17.3256 84.4373 17.4645 84.5751L19.7606 86.8548C19.9302 87.023 20.0452 87.1073 20.1059 87.1069C20.1684 87.1083 20.2845 87.0233 20.4548 86.8523L24.2745 83.0055L25.6881 84.4091L20.5327 89.6012L19.582 88.6569L19.3716 87.9887C19.0009 87.7416 18.5816 87.4333 18.1145 87.0633C17.6488 86.6915 17.1531 86.2451 16.6273 85.7233Z" fill="#F2F9F2"/>
<path d="M29.6732 95.1587L25.6575 92.8705C25.0225 92.5087 24.5922 92.2194 24.3661 92.003C24.1382 91.7851 24.0432 91.643 24.0811 91.5765L25.1143 90.7551C25.3718 90.9401 25.8572 91.2583 26.5711 91.7087C27.2847 92.1594 28.1814 92.6922 29.2604 93.3069L29.9704 93.7112C30.2068 93.8458 30.3932 93.8669 30.5286 93.7737C30.6607 93.6815 30.7893 93.5262 30.9132 93.3083C31.0375 93.0905 31.1022 92.8947 31.1072 92.7219C31.1111 92.5508 31.0039 92.4033 30.7861 92.2794L27.2964 90.2908C26.6343 89.9137 26.2275 89.5155 26.0757 89.0965C25.9261 88.6787 25.9947 88.2187 26.2807 87.7162L26.6036 87.1497C26.6793 87.0169 26.7825 86.8694 26.9132 86.7076C27.0432 86.5422 27.2164 86.4019 27.4336 86.2865C27.6493 86.173 27.9186 86.1301 28.2414 86.1569C28.5643 86.184 28.9529 86.3272 29.4072 86.5862L33.3236 88.8176C33.89 89.1405 34.2729 89.4026 34.4714 89.6037C34.6704 89.8047 34.7507 89.9387 34.7129 90.0051L33.9679 90.9869C33.7072 90.8026 33.2179 90.484 32.5 90.0312C31.78 89.5769 30.8857 89.0455 29.8168 88.4362L29.1072 88.0319C28.8707 87.8972 28.6861 87.8758 28.5539 87.968C28.4182 88.0612 28.3022 88.193 28.205 88.3633C28.1022 88.544 28.0482 88.7112 28.0429 88.8647C28.0357 89.0172 28.1504 89.1612 28.3872 89.2958L31.88 91.2858C32.5232 91.6522 32.9204 92.0533 33.0711 92.4883C33.2229 92.9265 33.1825 93.349 32.9511 93.7562L32.4739 94.5933C32.3768 94.7637 32.2632 94.9365 32.1329 95.1126C32.0025 95.2883 31.8329 95.4269 31.6239 95.528C31.415 95.629 31.1536 95.6587 30.8393 95.6169C30.525 95.5751 30.1361 95.4226 29.6732 95.1587Z" fill="#F2F9F2"/>
<path d="M38.513 98.4658L38.0277 98.3258C37.2312 98.0961 36.7355 97.7718 36.5405 97.3529C36.3434 96.9333 36.3409 96.3893 36.5334 95.7211L37.5919 92.0475L36.3044 91.6765L36.6934 90.3268L37.3544 90.5175C37.5519 90.5743 37.7041 90.5847 37.8116 90.5486C37.9194 90.51 38.0216 90.4029 38.1169 90.2265L38.9144 88.6365L40.5155 89.0979L39.8952 91.2497L43.1591 92.1904L42.7702 93.54L39.5062 92.5993L38.4437 96.2868C38.3684 96.5486 38.3816 96.74 38.4834 96.8611C38.5834 96.9793 38.7598 97.075 39.0119 97.1479L41.2259 97.7858L41.0377 99.0218C40.808 98.9904 40.463 98.9283 40.0023 98.8354C39.5419 98.7425 39.0455 98.6193 38.513 98.4658Z" fill="#F2F9F2"/>
<path d="M47.2901 99.7305L45.134 99.6716L45.3601 91.3766L45.2347 90.0684L47.7169 90.1362L51.2276 96.7662L55.224 90.3409L57.4305 90.4012L57.1683 100L55.0122 99.9412L55.1783 93.8523L54.9994 93.8477L54.323 95.2484L52.1662 98.8851L50.1894 98.8312L48.234 95.0823L47.6208 93.6462L47.4562 93.6416L47.2901 99.7305Z" fill="#F2F9F2"/>
<path d="M66.8519 97.4259L63.7076 98.3666C63.1858 98.5227 62.764 98.5755 62.4423 98.5248C62.1198 98.4716 61.8666 98.3591 61.683 98.1873C61.5016 98.0148 61.363 97.818 61.2669 97.5973C61.1733 97.3759 61.0983 97.1716 61.0423 96.9837L60.1426 93.977C60.0962 93.8212 60.0519 93.6277 60.0098 93.3955C59.9701 93.163 59.9769 92.9191 60.0301 92.6641C60.0862 92.4105 60.2355 92.1677 60.478 91.9355C60.7201 91.7034 61.0976 91.5109 61.6101 91.3573L64.9741 90.3505C65.663 90.1445 66.2212 90.0484 66.6494 90.0627C67.0798 90.0759 67.4198 90.2037 67.6691 90.4455C67.9191 90.6898 68.1176 91.0569 68.2641 91.5466L68.9576 93.8637L66.2183 94.6834C65.2801 94.9641 64.5094 95.1723 63.9069 95.3077C63.3065 95.4423 62.9051 95.5337 62.7023 95.582L62.9601 96.4437C63.0733 96.8637 63.3862 96.997 63.8987 96.8434L64.6951 96.6052C65.258 96.4366 65.8062 96.2641 66.339 96.087C66.8719 95.9102 67.359 95.742 67.8001 95.5827C68.2412 95.4234 68.5933 95.2916 68.8562 95.188L69.7894 96.0195C69.8858 96.342 68.9065 96.8109 66.8519 97.4259ZM62.0419 93.3748L62.3419 94.3773L66.6462 93.0891L66.3466 92.0869C66.2844 91.8787 66.2165 91.7405 66.1437 91.6723C66.0726 91.6012 65.9183 91.5902 65.6812 91.6387C65.4462 91.6866 65.0519 91.7934 64.498 91.9591L62.6066 92.5252C62.1055 92.6752 61.9173 92.9584 62.0419 93.3748Z" fill="#F2F9F2"/>
<path d="M75.7776 93.2641L75.0794 93.6883C74.6141 93.9712 74.2191 94.1287 73.8948 94.1605C73.5694 94.1905 73.2958 94.1455 73.0751 94.0255C72.8562 93.9041 72.6723 93.7491 72.5237 93.5598C72.3773 93.3694 72.253 93.1905 72.1516 93.023L70.5216 90.3405C70.4373 90.2016 70.3455 90.0255 70.2466 89.8116C70.1494 89.5966 70.0944 89.3591 70.0816 89.0987C70.0719 88.8391 70.1551 88.5662 70.3308 88.2805C70.5066 87.9948 70.8234 87.713 71.2805 87.4351L71.9909 87.0037C72.8462 86.4841 73.5473 86.0805 74.0937 85.793C74.6401 85.5055 75.0633 85.2958 75.3633 85.1641L73.6926 82.4144L75.3955 81.3801L80.7719 90.2294L79.6298 90.9237L78.9155 90.9762C78.5633 91.2798 78.1305 91.628 77.6173 92.0205C77.1073 92.4141 76.4941 92.8287 75.7776 93.2641ZM74.8798 92.1658L77.9083 90.3258C78.1044 90.2069 78.2116 90.1094 78.2301 90.0341C78.2466 89.9598 78.1983 89.8298 78.0851 89.6441L76.0594 86.3094C75.7319 86.4833 75.3187 86.7051 74.8198 86.9744C74.3223 87.2458 73.7991 87.5483 73.2498 87.8823L72.5394 88.3137C72.0923 88.5855 71.9816 88.9069 72.2076 89.2783L73.8708 92.0162C74.0966 92.3876 74.433 92.4376 74.8798 92.1658Z" fill="#F2F9F2"/>
<path d="M79.1212 80.5725C78.8237 80.8453 78.5516 80.9832 78.3045 80.9861C78.0573 80.9921 77.8048 80.8546 77.5462 80.5729C77.2816 80.2843 77.1627 80.0204 77.1898 79.7814C77.2152 79.5443 77.3802 79.2857 77.6852 79.0064C77.9898 78.7271 78.2641 78.5825 78.5077 78.5729C78.7498 78.5646 79.0034 78.705 79.268 78.9939C79.5184 79.2668 79.633 79.5279 79.612 79.7771C79.5891 80.0282 79.4255 80.2932 79.1212 80.5725ZM85.4955 86.0493L84.0277 87.3957L79.0823 82.0036L80.5502 80.6571L85.4955 86.0493Z" fill="#F2F9F2"/>
<path d="M91.36 78.6599L89.4154 81.3039C89.0929 81.7424 88.7875 82.0385 88.5 82.1917C88.2104 82.3435 87.9408 82.406 87.6908 82.3792C87.4422 82.3506 87.2129 82.2771 87.0036 82.1585C86.7958 82.0381 86.6125 81.9199 86.4547 81.8039L83.9261 79.9442C83.7954 79.8481 83.6433 79.7199 83.4704 79.5603C83.299 79.3985 83.1575 79.1996 83.0465 78.9635C82.9386 78.7271 82.9115 78.4431 82.9654 78.1124C83.019 77.7814 83.2047 77.4003 83.5215 76.9692L84.865 75.1421C85.6718 74.0453 86.2722 73.2874 86.6661 72.8685C87.0636 72.4492 87.2929 72.2621 87.3547 72.3071L88.1579 73.3074C87.9608 73.5392 87.7129 73.8356 87.4147 74.1971C87.1161 74.5585 86.8 74.9521 86.4668 75.3771C86.135 75.8003 85.8168 76.2185 85.5125 76.6321L85.02 77.3017C84.71 77.7232 84.7304 78.0628 85.0804 78.3203L87.6611 80.2181C88.0043 80.4853 88.3343 80.4035 88.6511 79.9724L89.1436 79.3028C89.4918 78.8296 89.8254 78.3617 90.1447 77.8996C90.4636 77.4374 90.7515 77.0099 91.0075 76.6171C91.2636 76.2242 91.4658 75.9074 91.6136 75.6664L92.8593 75.7685C93.1308 75.9681 92.6308 76.9317 91.36 78.6599Z" fill="#F2F9F2"/>
<path d="M97.1723 67.07L95.4141 71.3447C95.1359 72.0207 94.9037 72.4843 94.7177 72.7357C94.5305 72.9893 94.402 73.1018 94.3312 73.0725L93.3848 72.1525C93.5355 71.8736 93.7891 71.3514 94.1452 70.5861C94.5012 69.8207 94.9155 68.8639 95.3884 67.7154L95.6991 66.9597C95.8027 66.7079 95.7998 66.5207 95.6898 66.3982C95.5812 66.2786 95.4112 66.1714 95.1795 66.0757C94.9477 65.9804 94.7455 65.9411 94.573 65.9579C94.403 65.9757 94.2702 66.1007 94.1748 66.3329L92.6466 70.0472C92.3566 70.7518 92.0137 71.2061 91.6173 71.41C91.222 71.6114 90.7569 71.6022 90.2223 71.3822L89.6191 71.1343C89.4777 71.0761 89.3184 70.9925 89.1412 70.8832C88.9609 70.7754 88.7995 70.6214 88.6573 70.4207C88.5173 70.2211 88.4402 69.9597 88.4262 69.6361C88.412 69.3125 88.5045 68.9089 88.7034 68.425L90.4184 64.2564C90.6666 63.6532 90.8777 63.2404 91.052 63.0179C91.2262 62.795 91.3487 62.6982 91.4195 62.7275L92.488 63.3414C92.3384 63.6236 92.0848 64.1493 91.7266 64.9189C91.3677 65.6907 90.9544 66.6457 90.4862 67.7832L90.1755 68.5386C90.072 68.7904 90.0745 68.9761 90.1827 69.0957C90.2923 69.2182 90.4377 69.3168 90.6191 69.3914C90.8112 69.4704 90.9841 69.5029 91.137 69.4882C91.2891 69.4761 91.4173 69.3439 91.5209 69.0922L93.0505 65.3743C93.3323 64.6897 93.6791 64.2447 94.0916 64.0397C94.5069 63.8336 94.9312 63.8193 95.3641 63.9975L96.2555 64.3643C96.4366 64.4389 96.6227 64.5297 96.8137 64.6364C97.0048 64.7436 97.1637 64.8939 97.2902 65.0882C97.4169 65.2825 97.4794 65.5382 97.4784 65.8554C97.4769 66.1725 97.3752 66.5775 97.1723 67.07Z" fill="#F2F9F2"/>
</g>
</g>
</g>
</g>
</g>
</g>
<defs>
<clipPath id="clip0_107_14180">
<rect width="100" height="100" fill="white"/>
</clipPath>
<clipPath id="clip1_107_14180">
<rect width="100" height="100" fill="white"/>
</clipPath>
<clipPath id="clip2_107_14180">
<rect width="100" height="100" fill="white"/>
</clipPath>
<clipPath id="clip3_107_14180">
<rect width="100" height="100" fill="white"/>
</clipPath>
<clipPath id="clip4_107_14180">
<rect width="100" height="100" fill="white"/>
</clipPath>
<clipPath id="clip5_107_14180">
<rect width="100" height="100" fill="white"/>
</clipPath>
<clipPath id="clip6_107_14180">
<rect width="58.9256" height="58.9256" fill="white" transform="translate(20.5371 20.5371)"/>
</clipPath>
<clipPath id="clip7_107_14180">
<rect width="41.2479" height="41.2479" fill="white" transform="translate(29.376 29.376)"/>
</clipPath>
</defs>
</svg>
