<svg id="visual" viewBox="0 0 900 600" width="900" height="600" xmlns="http://www.w3.org/2000/svg" xmlns:xlink="http://www.w3.org/1999/xlink" version="1.1"><g stroke-width="1" stroke-linejoin="bevel"><path d="M509 308.8L519.5 308.8L515 289.3Z" fill="#9cdffd" stroke="#9cdffd"></path><path d="M519.5 308.8L571.5 286.2L515 289.3Z" fill="#a7e1fe" stroke="#a7e1fe"></path><path d="M571.5 286.2L560.3 261.6L515 289.3Z" fill="#bce5ff" stroke="#bce5ff"></path><path d="M505.3 222.7L469.8 253.2L515 289.3Z" fill="#c5e8ff" stroke="#c5e8ff"></path><path d="M515 289.3L469.8 253.2L509 308.8Z" fill="#ceeaff" stroke="#ceeaff"></path><path d="M571.5 286.2L571.8 254.3L560.3 261.6Z" fill="#b7e4ff" stroke="#b7e4ff"></path><path d="M560.3 261.6L505.3 222.7L515 289.3Z" fill="#a2e0fe" stroke="#a2e0fe"></path><path d="M519.5 308.8L588 307.2L571.5 286.2Z" fill="#9cdffd" stroke="#9cdffd"></path><path d="M571.5 286.2L605.8 285.8L571.8 254.3Z" fill="#b2e3ff" stroke="#b2e3ff"></path><path d="M571.8 254.3L505.3 222.7L560.3 261.6Z" fill="#c5e8ff" stroke="#c5e8ff"></path><path d="M505.3 222.7L485.3 214.2L469.8 253.2Z" fill="#b2e3ff" stroke="#b2e3ff"></path><path d="M588 307.2L605.8 285.8L571.5 286.2Z" fill="#a2e0fe" stroke="#a2e0fe"></path><path d="M528.5 406.9L543.3 395.3L509 308.8Z" fill="#a7e1fe" stroke="#a7e1fe"></path><path d="M509 308.8L543.3 395.3L519.5 308.8Z" fill="#b2e3ff" stroke="#b2e3ff"></path><path d="M519.5 308.8L543.3 395.3L588 307.2Z" fill="#a7e1fe" stroke="#a7e1fe"></path><path d="M624 330.3L620.5 281.3L605.8 285.8Z" fill="#cae9ff" stroke="#cae9ff"></path><path d="M624 330.3L605.8 285.8L588 307.2Z" fill="#c5e8ff" stroke="#c5e8ff"></path><path d="M605.8 285.8L620.5 281.3L571.8 254.3Z" fill="#bce5ff" stroke="#bce5ff"></path><path d="M445 400.4L528.5 406.9L509 308.8Z" fill="#9cdffd" stroke="#9cdffd"></path><path d="M505.3 222.7L467 196.7L485.3 214.2Z" fill="#a2e0fe" stroke="#a2e0fe"></path><path d="M485.3 214.2L467 196.7L469.8 253.2Z" fill="#9cdffd" stroke="#9cdffd"></path><path d="M574.8 101.1L467 196.7L505.3 222.7Z" fill="#ade2fe" stroke="#ade2fe"></path><path d="M628.8 358.7L624 330.3L588 307.2Z" fill="#c1e6ff" stroke="#c1e6ff"></path><path d="M441.3 410.8L445 400.4L382.5 376.8Z" fill="#a7e1fe" stroke="#a7e1fe"></path><path d="M382.5 376.8L445 400.4L509 308.8Z" fill="#ade2fe" stroke="#ade2fe"></path><path d="M620.5 281.3L607 211.6L571.8 254.3Z" fill="#c1e6ff" stroke="#c1e6ff"></path><path d="M571.8 254.3L607 211.6L505.3 222.7Z" fill="#a2e0fe" stroke="#a2e0fe"></path><path d="M543.3 395.3L628.8 358.7L588 307.2Z" fill="#c1e6ff" stroke="#c1e6ff"></path><path d="M705.5 267.3L661 250.7L620.5 281.3Z" fill="#c1e6ff" stroke="#c1e6ff"></path><path d="M669 384.8L628.8 358.7L662.3 399.4Z" fill="#b7e4ff" stroke="#b7e4ff"></path><path d="M382.5 376.8L509 308.8L469.8 253.2Z" fill="#a2e0fe" stroke="#a2e0fe"></path><path d="M486.3 442.4L515.3 435.9L528.5 406.9Z" fill="#c5e8ff" stroke="#c5e8ff"></path><path d="M467 196.7L402 225.2L469.8 253.2Z" fill="#c1e6ff" stroke="#c1e6ff"></path><path d="M456.8 423.9L528.5 406.9L445 400.4Z" fill="#b7e4ff" stroke="#b7e4ff"></path><path d="M528.5 406.9L556.5 488.5L543.3 395.3Z" fill="#bce5ff" stroke="#bce5ff"></path><path d="M441.3 410.8L456.8 423.9L445 400.4Z" fill="#ade2fe" stroke="#ade2fe"></path><path d="M661 250.7L620.5 201.7L607 211.6Z" fill="#ceeaff" stroke="#ceeaff"></path><path d="M607 211.6L574.8 101.1L505.3 222.7Z" fill="#b7e4ff" stroke="#b7e4ff"></path><path d="M661 250.7L607 211.6L620.5 281.3Z" fill="#a7e1fe" stroke="#a7e1fe"></path><path d="M456.8 423.9L486.3 442.4L528.5 406.9Z" fill="#a7e1fe" stroke="#a7e1fe"></path><path d="M467 196.7L412.5 189.1L402 225.2Z" fill="#c1e6ff" stroke="#c1e6ff"></path><path d="M426.8 125.6L412.5 189.1L467 196.7Z" fill="#c5e8ff" stroke="#c5e8ff"></path><path d="M402 225.2L382.5 376.8L469.8 253.2Z" fill="#9cdffd" stroke="#9cdffd"></path><path d="M441.3 410.8L392 464.5L456.8 423.9Z" fill="#ceeaff" stroke="#ceeaff"></path><path d="M705.5 267.3L620.5 281.3L624 330.3Z" fill="#a7e1fe" stroke="#a7e1fe"></path><path d="M360.5 365.4L361.8 367.4L382.5 376.8Z" fill="#a2e0fe" stroke="#a2e0fe"></path><path d="M382.5 376.8L392 464.5L441.3 410.8Z" fill="#c1e6ff" stroke="#c1e6ff"></path><path d="M528 570.9L556.5 488.5L486.3 442.4Z" fill="#bce5ff" stroke="#bce5ff"></path><path d="M402 225.2L360.5 365.4L382.5 376.8Z" fill="#cae9ff" stroke="#cae9ff"></path><path d="M329.8 318.7L360.5 365.4L402 225.2Z" fill="#ade2fe" stroke="#ade2fe"></path><path d="M708.3 255.7L669.8 231.6L661 250.7Z" fill="#a2e0fe" stroke="#a2e0fe"></path><path d="M661 250.7L669.8 231.6L620.5 201.7Z" fill="#b2e3ff" stroke="#b2e3ff"></path><path d="M662.3 399.4L628.8 358.7L658.8 430.9Z" fill="#a7e1fe" stroke="#a7e1fe"></path><path d="M628.8 358.7L669 384.8L624 330.3Z" fill="#b7e4ff" stroke="#b7e4ff"></path><path d="M658.8 430.9L628.8 358.7L612.5 469.4Z" fill="#c1e6ff" stroke="#c1e6ff"></path><path d="M322 239.7L329.8 318.7L402 225.2Z" fill="#ade2fe" stroke="#ade2fe"></path><path d="M360.5 365.4L300 344.3L361.8 367.4Z" fill="#bce5ff" stroke="#bce5ff"></path><path d="M329.8 318.7L327.8 334.3L360.5 365.4Z" fill="#ade2fe" stroke="#ade2fe"></path><path d="M412.5 189.1L358 190.6L402 225.2Z" fill="#c5e8ff" stroke="#c5e8ff"></path><path d="M669.8 231.6L662 178.1L620.5 201.7Z" fill="#b7e4ff" stroke="#b7e4ff"></path><path d="M462.5 92.1L426.8 125.6L467 196.7Z" fill="#b7e4ff" stroke="#b7e4ff"></path><path d="M412.5 189.1L363.5 134.2L358 190.6Z" fill="#c1e6ff" stroke="#c1e6ff"></path><path d="M486.3 442.4L556.5 488.5L515.3 435.9Z" fill="#b2e3ff" stroke="#b2e3ff"></path><path d="M515.3 435.9L556.5 488.5L528.5 406.9Z" fill="#b2e3ff" stroke="#b2e3ff"></path><path d="M392 464.5L486.3 442.4L456.8 423.9Z" fill="#ade2fe" stroke="#ade2fe"></path><path d="M669 384.8L705.5 267.3L624 330.3Z" fill="#9cdffd" stroke="#9cdffd"></path><path d="M669.8 231.6L712.5 179.2L662 178.1Z" fill="#bce5ff" stroke="#bce5ff"></path><path d="M574.8 101.1L607 211.6L620.5 201.7Z" fill="#cae9ff" stroke="#cae9ff"></path><path d="M612.5 469.4L628.8 358.7L543.3 395.3Z" fill="#bce5ff" stroke="#bce5ff"></path><path d="M662.3 399.4L698.3 461.8L669 384.8Z" fill="#cae9ff" stroke="#cae9ff"></path><path d="M778.8 354.4L778.8 246.6L705.5 267.3Z" fill="#ade2fe" stroke="#ade2fe"></path><path d="M556.5 488.5L612.5 469.4L543.3 395.3Z" fill="#a2e0fe" stroke="#a2e0fe"></path><path d="M705.5 267.3L708.3 255.7L661 250.7Z" fill="#a2e0fe" stroke="#a2e0fe"></path><path d="M358 190.6L322 239.7L402 225.2Z" fill="#bce5ff" stroke="#bce5ff"></path><path d="M329.8 318.7L311.3 340.8L327.8 334.3Z" fill="#bce5ff" stroke="#bce5ff"></path><path d="M322 239.7L310.8 284.8L329.8 318.7Z" fill="#9cdffd" stroke="#9cdffd"></path><path d="M260 462.5L392 464.5L361.8 367.4Z" fill="#a7e1fe" stroke="#a7e1fe"></path><path d="M361.8 367.4L392 464.5L382.5 376.8Z" fill="#c5e8ff" stroke="#c5e8ff"></path><path d="M283.3 314.3L311.3 340.8L329.8 318.7Z" fill="#b7e4ff" stroke="#b7e4ff"></path><path d="M327.8 334.3L311.3 340.8L360.5 365.4Z" fill="#b7e4ff" stroke="#b7e4ff"></path><path d="M662 178.1L574.8 101.1L620.5 201.7Z" fill="#9cdffd" stroke="#9cdffd"></path><path d="M489.8 83.1L462.5 92.1L467 196.7Z" fill="#b2e3ff" stroke="#b2e3ff"></path><path d="M462.5 92.1L447.8 94.5L426.8 125.6Z" fill="#c5e8ff" stroke="#c5e8ff"></path><path d="M426.8 125.6L363.5 134.2L412.5 189.1Z" fill="#a2e0fe" stroke="#a2e0fe"></path><path d="M574.8 101.1L489.8 83.1L467 196.7Z" fill="#cae9ff" stroke="#cae9ff"></path><path d="M407 58.1L426.3 93.1L447.8 94.5Z" fill="#cae9ff" stroke="#cae9ff"></path><path d="M283.3 314.3L300 344.3L311.3 340.8Z" fill="#c5e8ff" stroke="#c5e8ff"></path><path d="M311.3 340.8L300 344.3L360.5 365.4Z" fill="#a7e1fe" stroke="#a7e1fe"></path><path d="M639.3 523.9L651.8 473.4L612.5 469.4Z" fill="#b2e3ff" stroke="#b2e3ff"></path><path d="M612.5 469.4L651.8 473.4L658.8 430.9Z" fill="#ceeaff" stroke="#ceeaff"></path><path d="M658.8 430.9L698.3 461.8L662.3 399.4Z" fill="#b7e4ff" stroke="#b7e4ff"></path><path d="M426.3 93.1L363.5 134.2L426.8 125.6Z" fill="#c5e8ff" stroke="#c5e8ff"></path><path d="M280.3 216.6L278.5 242.6L322 239.7Z" fill="#c5e8ff" stroke="#c5e8ff"></path><path d="M407 58.1L447.8 94.5L462.5 92.1Z" fill="#b2e3ff" stroke="#b2e3ff"></path><path d="M447.8 94.5L426.3 93.1L426.8 125.6Z" fill="#ade2fe" stroke="#ade2fe"></path><path d="M310.8 284.8L283.3 314.3L329.8 318.7Z" fill="#a2e0fe" stroke="#a2e0fe"></path><path d="M278.5 242.6L283.3 314.3L310.8 284.8Z" fill="#9cdffd" stroke="#9cdffd"></path><path d="M278.5 242.6L310.8 284.8L322 239.7Z" fill="#a7e1fe" stroke="#a7e1fe"></path><path d="M708.3 255.7L712.5 179.2L669.8 231.6Z" fill="#c1e6ff" stroke="#c1e6ff"></path><path d="M662 178.1L673.3 117.1L574.8 101.1Z" fill="#ade2fe" stroke="#ade2fe"></path><path d="M712.5 179.2L691.8 144.2L662 178.1Z" fill="#bce5ff" stroke="#bce5ff"></path><path d="M574.8 101.1L530.5 63.6L489.8 83.1Z" fill="#cae9ff" stroke="#cae9ff"></path><path d="M455.8 0L407 58.1L462.5 92.1Z" fill="#bce5ff" stroke="#bce5ff"></path><path d="M524.8 36.5L602.8 0L557.5 -9.5Z" fill="#b2e3ff" stroke="#b2e3ff"></path><path d="M528 570.9L602.8 520.5L556.5 488.5Z" fill="#c1e6ff" stroke="#c1e6ff"></path><path d="M556.5 488.5L602.8 520.5L612.5 469.4Z" fill="#c5e8ff" stroke="#c5e8ff"></path><path d="M530.5 63.6L517 58.5L489.8 83.1Z" fill="#9cdffd" stroke="#9cdffd"></path><path d="M691.8 144.2L673.3 117.1L662 178.1Z" fill="#ade2fe" stroke="#ade2fe"></path><path d="M530.5 63.6L524.8 36.5L517 58.5Z" fill="#a2e0fe" stroke="#a2e0fe"></path><path d="M280.3 216.6L322 239.7L358 190.6Z" fill="#bce5ff" stroke="#bce5ff"></path><path d="M748.8 150.5L687.3 128.5L691.8 144.2Z" fill="#9cdffd" stroke="#9cdffd"></path><path d="M691.8 144.2L687.3 128.5L673.3 117.1Z" fill="#9cdffd" stroke="#9cdffd"></path><path d="M718.3 497.5L698.3 461.8L696.5 523.9Z" fill="#cae9ff" stroke="#cae9ff"></path><path d="M651.8 473.4L698.3 461.8L658.8 430.9Z" fill="#cae9ff" stroke="#cae9ff"></path><path d="M705.5 267.3L778.8 246.6L708.3 255.7Z" fill="#b2e3ff" stroke="#b2e3ff"></path><path d="M708.3 255.7L761.3 188.2L712.5 179.2Z" fill="#bce5ff" stroke="#bce5ff"></path><path d="M252.3 349.4L273 348.4L283.3 314.3Z" fill="#cae9ff" stroke="#cae9ff"></path><path d="M283.3 314.3L273 348.4L300 344.3Z" fill="#ceeaff" stroke="#ceeaff"></path><path d="M300 344.3L260 462.5L361.8 367.4Z" fill="#a2e0fe" stroke="#a2e0fe"></path><path d="M315 122.1L280.3 216.6L358 190.6Z" fill="#ade2fe" stroke="#ade2fe"></path><path d="M602.8 520.5L639.3 523.9L612.5 469.4Z" fill="#bce5ff" stroke="#bce5ff"></path><path d="M524.8 36.5L530.5 63.6L602.8 0Z" fill="#c1e6ff" stroke="#c1e6ff"></path><path d="M517 58.5L489 0L489.8 83.1Z" fill="#bce5ff" stroke="#bce5ff"></path><path d="M455.8 0L462.5 92.1L489.8 83.1Z" fill="#b2e3ff" stroke="#b2e3ff"></path><path d="M426.3 93.1L407 58.1L363.5 134.2Z" fill="#ceeaff" stroke="#ceeaff"></path><path d="M363.5 134.2L315 122.1L358 190.6Z" fill="#cae9ff" stroke="#cae9ff"></path><path d="M237.3 294.7L252.3 349.4L283.3 314.3Z" fill="#ceeaff" stroke="#ceeaff"></path><path d="M273 348.4L260 462.5L300 344.3Z" fill="#bce5ff" stroke="#bce5ff"></path><path d="M243.5 254.3L283.3 314.3L278.5 242.6Z" fill="#c5e8ff" stroke="#c5e8ff"></path><path d="M319.5 92.5L315 122.1L363.5 134.2Z" fill="#c1e6ff" stroke="#c1e6ff"></path><path d="M778.8 354.4L705.5 267.3L669 384.8Z" fill="#cae9ff" stroke="#cae9ff"></path><path d="M712.5 179.2L748.8 150.5L691.8 144.2Z" fill="#bce5ff" stroke="#bce5ff"></path><path d="M734.5 470.8L778.8 354.4L669 384.8Z" fill="#b7e4ff" stroke="#b7e4ff"></path><path d="M778.8 246.6L761.3 188.2L708.3 255.7Z" fill="#bce5ff" stroke="#bce5ff"></path><path d="M687.3 128.5L737 82.5L673.3 117.1Z" fill="#c5e8ff" stroke="#c5e8ff"></path><path d="M488.8 600L528 570.9L486.3 442.4Z" fill="#cae9ff" stroke="#cae9ff"></path><path d="M602.8 520.5L661.5 600L639.3 523.9Z" fill="#c1e6ff" stroke="#c1e6ff"></path><path d="M233 214.6L278.5 242.6L280.3 216.6Z" fill="#a2e0fe" stroke="#a2e0fe"></path><path d="M233 214.6L243.5 254.3L278.5 242.6Z" fill="#9cdffd" stroke="#9cdffd"></path><path d="M243.5 254.3L237.3 294.7L283.3 314.3Z" fill="#ade2fe" stroke="#ade2fe"></path><path d="M761.3 188.2L748.8 150.5L712.5 179.2Z" fill="#c1e6ff" stroke="#c1e6ff"></path><path d="M557.5 -9.5L489 0L524.8 36.5Z" fill="#ade2fe" stroke="#ade2fe"></path><path d="M718.3 497.5L734.5 470.8L698.3 461.8Z" fill="#ceeaff" stroke="#ceeaff"></path><path d="M698.3 461.8L734.5 470.8L669 384.8Z" fill="#cae9ff" stroke="#cae9ff"></path><path d="M778.8 246.6L765.5 178.6L761.3 188.2Z" fill="#bce5ff" stroke="#bce5ff"></path><path d="M761.3 188.2L765.5 178.6L748.8 150.5Z" fill="#c5e8ff" stroke="#c5e8ff"></path><path d="M237.3 294.7L239.5 354.7L252.3 349.4Z" fill="#ceeaff" stroke="#ceeaff"></path><path d="M252.3 349.4L239.5 354.7L273 348.4Z" fill="#b2e3ff" stroke="#b2e3ff"></path><path d="M424.3 600L488.8 600L486.3 442.4Z" fill="#a2e0fe" stroke="#a2e0fe"></path><path d="M696.5 523.9L651.8 473.4L639.3 523.9Z" fill="#cae9ff" stroke="#cae9ff"></path><path d="M696.5 523.9L698.3 461.8L651.8 473.4Z" fill="#c1e6ff" stroke="#c1e6ff"></path><path d="M407 58.1L319.5 92.5L363.5 134.2Z" fill="#a7e1fe" stroke="#a7e1fe"></path><path d="M315 122.1L274.3 133.5L280.3 216.6Z" fill="#ade2fe" stroke="#ade2fe"></path><path d="M661.5 600L696.5 523.9L639.3 523.9Z" fill="#c5e8ff" stroke="#c5e8ff"></path><path d="M319.5 92.5L274.3 133.5L315 122.1Z" fill="#b2e3ff" stroke="#b2e3ff"></path><path d="M243.5 254.3L129.8 258.7L237.3 294.7Z" fill="#cae9ff" stroke="#cae9ff"></path><path d="M146.3 379.8L152.8 403.8L239.5 354.7Z" fill="#cae9ff" stroke="#cae9ff"></path><path d="M240.3 170.2L233 214.6L280.3 216.6Z" fill="#9cdffd" stroke="#9cdffd"></path><path d="M696.5 523.9L730 500.9L718.3 497.5Z" fill="#b7e4ff" stroke="#b7e4ff"></path><path d="M718.3 497.5L730 500.9L734.5 470.8Z" fill="#cae9ff" stroke="#cae9ff"></path><path d="M734.5 470.8L816.3 416.3L778.8 354.4Z" fill="#ade2fe" stroke="#ade2fe"></path><path d="M530.5 63.6L574.8 101.1L602.8 0Z" fill="#a7e1fe" stroke="#a7e1fe"></path><path d="M524.8 36.5L489 0L517 58.5Z" fill="#ade2fe" stroke="#ade2fe"></path><path d="M407 58.1L313.3 35.1L319.5 92.5Z" fill="#c5e8ff" stroke="#c5e8ff"></path><path d="M424.3 600L486.3 442.4L392 464.5Z" fill="#c5e8ff" stroke="#c5e8ff"></path><path d="M528 570.9L661.5 600L602.8 520.5Z" fill="#ade2fe" stroke="#ade2fe"></path><path d="M239.5 354.7L260 462.5L273 348.4Z" fill="#c1e6ff" stroke="#c1e6ff"></path><path d="M274.3 133.5L240.3 170.2L280.3 216.6Z" fill="#a2e0fe" stroke="#a2e0fe"></path><path d="M489 0L455.8 0L489.8 83.1Z" fill="#b7e4ff" stroke="#b7e4ff"></path><path d="M739 509.5L756 487.4L730 500.9Z" fill="#a2e0fe" stroke="#a2e0fe"></path><path d="M730 500.9L756 487.4L734.5 470.8Z" fill="#b2e3ff" stroke="#b2e3ff"></path><path d="M690 600L739 509.5L696.5 523.9Z" fill="#cae9ff" stroke="#cae9ff"></path><path d="M696.5 523.9L739 509.5L730 500.9Z" fill="#bce5ff" stroke="#bce5ff"></path><path d="M777.3 121.6L737 82.5L748.8 150.5Z" fill="#bce5ff" stroke="#bce5ff"></path><path d="M748.8 150.5L737 82.5L687.3 128.5Z" fill="#ade2fe" stroke="#ade2fe"></path><path d="M455.8 0L428.3 0L407 58.1Z" fill="#a2e0fe" stroke="#a2e0fe"></path><path d="M602.8 0L574.8 101.1L637.5 0Z" fill="#ade2fe" stroke="#ade2fe"></path><path d="M489 0L444.3 -25.5L455.8 0Z" fill="#a7e1fe" stroke="#a7e1fe"></path><path d="M455.8 0L444.3 -25.5L428.3 0Z" fill="#bce5ff" stroke="#bce5ff"></path><path d="M637.5 0L574.8 101.1L673.3 117.1Z" fill="#9cdffd" stroke="#9cdffd"></path><path d="M387.8 587.5L424.3 600L392 464.5Z" fill="#a7e1fe" stroke="#a7e1fe"></path><path d="M260 462.5L338.5 559.9L392 464.5Z" fill="#a7e1fe" stroke="#a7e1fe"></path><path d="M338.5 559.9L387.8 587.5L392 464.5Z" fill="#ceeaff" stroke="#ceeaff"></path><path d="M765.5 178.6L777.3 121.6L748.8 150.5Z" fill="#b2e3ff" stroke="#b2e3ff"></path><path d="M900 125.1L777.3 121.6L765.5 178.6Z" fill="#b2e3ff" stroke="#b2e3ff"></path><path d="M839.5 327.7L832.8 264.2L778.8 354.4Z" fill="#a2e0fe" stroke="#a2e0fe"></path><path d="M778.8 354.4L832.8 264.2L778.8 246.6Z" fill="#b7e4ff" stroke="#b7e4ff"></path><path d="M778.8 246.6L832.8 264.2L765.5 178.6Z" fill="#c5e8ff" stroke="#c5e8ff"></path><path d="M828.8 444.8L816.3 416.3L756 487.4Z" fill="#b7e4ff" stroke="#b7e4ff"></path><path d="M756 487.4L816.3 416.3L734.5 470.8Z" fill="#ceeaff" stroke="#ceeaff"></path><path d="M658 0L637.5 0L673.3 117.1Z" fill="#c5e8ff" stroke="#c5e8ff"></path><path d="M602.8 0L637.5 0L557.5 -9.5Z" fill="#9cdffd" stroke="#9cdffd"></path><path d="M816.3 416.3L839.5 327.7L778.8 354.4Z" fill="#b2e3ff" stroke="#b2e3ff"></path><path d="M338.5 559.9L373 600L387.8 587.5Z" fill="#b7e4ff" stroke="#b7e4ff"></path><path d="M387.8 587.5L373 600L424.3 600Z" fill="#a7e1fe" stroke="#a7e1fe"></path><path d="M323.5 0L313.3 35.1L407 58.1Z" fill="#bce5ff" stroke="#bce5ff"></path><path d="M203.8 67.6L216 118.2L274.3 133.5Z" fill="#c5e8ff" stroke="#c5e8ff"></path><path d="M274.3 133.5L216 118.2L240.3 170.2Z" fill="#bce5ff" stroke="#bce5ff"></path><path d="M737 82.5L658 0L673.3 117.1Z" fill="#c1e6ff" stroke="#c1e6ff"></path><path d="M637.5 0L658 0L557.5 -9.5Z" fill="#ceeaff" stroke="#ceeaff"></path><path d="M785.5 0L658 0L737 82.5Z" fill="#b2e3ff" stroke="#b2e3ff"></path><path d="M785.5 0L444.3 -25.5L557.5 -9.5Z" fill="#c5e8ff" stroke="#c5e8ff"></path><path d="M557.5 -9.5L444.3 -25.5L489 0Z" fill="#a7e1fe" stroke="#a7e1fe"></path><path d="M428.3 0L323.5 0L407 58.1Z" fill="#9cdffd" stroke="#9cdffd"></path><path d="M520.3 640.5L661.5 600L528 570.9Z" fill="#9cdffd" stroke="#9cdffd"></path><path d="M859.5 84.5L779.5 87.1L777.3 121.6Z" fill="#b7e4ff" stroke="#b7e4ff"></path><path d="M777.3 121.6L779.5 87.1L737 82.5Z" fill="#a2e0fe" stroke="#a2e0fe"></path><path d="M661.5 600L674.8 600L696.5 523.9Z" fill="#b2e3ff" stroke="#b2e3ff"></path><path d="M843.5 491.5L828.8 444.8L756 487.4Z" fill="#c1e6ff" stroke="#c1e6ff"></path><path d="M424.3 600L520.3 640.5L488.8 600Z" fill="#b7e4ff" stroke="#b7e4ff"></path><path d="M488.8 600L520.3 640.5L528 570.9Z" fill="#ade2fe" stroke="#ade2fe"></path><path d="M661.5 600L520.3 640.5L674.8 600Z" fill="#c1e6ff" stroke="#c1e6ff"></path><path d="M373 600L520.3 640.5L424.3 600Z" fill="#9cdffd" stroke="#9cdffd"></path><path d="M144.5 476.4L248.3 515.9L260 462.5Z" fill="#9cdffd" stroke="#9cdffd"></path><path d="M260 462.5L254 522.9L338.5 559.9Z" fill="#a2e0fe" stroke="#a2e0fe"></path><path d="M338.5 559.9L343.5 600L373 600Z" fill="#ade2fe" stroke="#ade2fe"></path><path d="M248.3 515.9L254 522.9L260 462.5Z" fill="#cae9ff" stroke="#cae9ff"></path><path d="M240.3 170.2L182.8 208.2L233 214.6Z" fill="#9cdffd" stroke="#9cdffd"></path><path d="M233 214.6L182.8 208.2L243.5 254.3Z" fill="#b2e3ff" stroke="#b2e3ff"></path><path d="M239.5 354.7L152.8 403.8L260 462.5Z" fill="#b2e3ff" stroke="#b2e3ff"></path><path d="M182.5 127.6L182.8 208.2L240.3 170.2Z" fill="#b7e4ff" stroke="#b7e4ff"></path><path d="M292.5 588.5L343.5 600L338.5 559.9Z" fill="#a2e0fe" stroke="#a2e0fe"></path><path d="M373 600L343.5 600L520.3 640.5Z" fill="#c5e8ff" stroke="#c5e8ff"></path><path d="M839.5 327.7L857.8 259.7L832.8 264.2Z" fill="#c1e6ff" stroke="#c1e6ff"></path><path d="M832.8 264.2L857.8 259.7L765.5 178.6Z" fill="#cae9ff" stroke="#cae9ff"></path><path d="M900 350.8L857.8 259.7L839.5 327.7Z" fill="#c1e6ff" stroke="#c1e6ff"></path><path d="M843.5 491.5L756 487.4L835.8 542.5Z" fill="#ade2fe" stroke="#ade2fe"></path><path d="M900 381.3L900 350.8L839.5 327.7Z" fill="#ceeaff" stroke="#ceeaff"></path><path d="M520.3 640.5L690 600L674.8 600Z" fill="#9cdffd" stroke="#9cdffd"></path><path d="M674.8 600L690 600L696.5 523.9Z" fill="#b2e3ff" stroke="#b2e3ff"></path><path d="M203.8 67.6L274.3 133.5L319.5 92.5Z" fill="#b2e3ff" stroke="#b2e3ff"></path><path d="M444.3 -25.5L323.5 0L428.3 0Z" fill="#bce5ff" stroke="#bce5ff"></path><path d="M313.3 35.1L203.8 67.6L319.5 92.5Z" fill="#c1e6ff" stroke="#c1e6ff"></path><path d="M254 522.9L292.5 588.5L338.5 559.9Z" fill="#bce5ff" stroke="#bce5ff"></path><path d="M343.5 600L246.3 600L520.3 640.5Z" fill="#c5e8ff" stroke="#c5e8ff"></path><path d="M246.3 600L292.5 588.5L254 522.9Z" fill="#9cdffd" stroke="#9cdffd"></path><path d="M203.8 67.6L182.5 127.6L216 118.2Z" fill="#bce5ff" stroke="#bce5ff"></path><path d="M216 118.2L182.5 127.6L240.3 170.2Z" fill="#b2e3ff" stroke="#b2e3ff"></path><path d="M444.3 -25.5L288.3 0L323.5 0Z" fill="#b7e4ff" stroke="#b7e4ff"></path><path d="M323.5 0L288.3 0L313.3 35.1Z" fill="#a7e1fe" stroke="#a7e1fe"></path><path d="M239.5 354.7L237.3 294.7L124.3 313.2Z" fill="#c1e6ff" stroke="#c1e6ff"></path><path d="M146.3 379.8L239.5 354.7L124.3 313.2Z" fill="#9cdffd" stroke="#9cdffd"></path><path d="M192.3 581.5L246.3 600L254 522.9Z" fill="#b7e4ff" stroke="#b7e4ff"></path><path d="M129.8 258.7L243.5 254.3L182.8 208.2Z" fill="#a7e1fe" stroke="#a7e1fe"></path><path d="M835.8 542.5L756 487.4L739 509.5Z" fill="#bce5ff" stroke="#bce5ff"></path><path d="M900 381.3L839.5 327.7L816.3 416.3Z" fill="#9cdffd" stroke="#9cdffd"></path><path d="M97.5 151.5L129.8 258.7L182.8 208.2Z" fill="#c1e6ff" stroke="#c1e6ff"></path><path d="M202.5 56.1L203.8 67.6L313.3 35.1Z" fill="#b2e3ff" stroke="#b2e3ff"></path><path d="M182.5 127.6L136.8 131.5L182.8 208.2Z" fill="#a7e1fe" stroke="#a7e1fe"></path><path d="M900 381.3L816.3 416.3L900 383.4Z" fill="#a7e1fe" stroke="#a7e1fe"></path><path d="M857.8 259.7L900 215.7L765.5 178.6Z" fill="#cae9ff" stroke="#cae9ff"></path><path d="M129.8 258.7L124.3 313.2L237.3 294.7Z" fill="#9cdffd" stroke="#9cdffd"></path><path d="M146.3 379.8L131 387.8L152.8 403.8Z" fill="#b2e3ff" stroke="#b2e3ff"></path><path d="M900 350.8L900 236.6L857.8 259.7Z" fill="#c1e6ff" stroke="#c1e6ff"></path><path d="M900 236.6L900 229.2L857.8 259.7Z" fill="#cae9ff" stroke="#cae9ff"></path><path d="M113.8 367.3L131 387.8L146.3 379.8Z" fill="#ceeaff" stroke="#ceeaff"></path><path d="M192.3 581.5L254 522.9L248.3 515.9Z" fill="#9cdffd" stroke="#9cdffd"></path><path d="M900 383.4L816.3 416.3L900 399.9Z" fill="#b7e4ff" stroke="#b7e4ff"></path><path d="M900 399.9L816.3 416.3L828.8 444.8Z" fill="#bce5ff" stroke="#bce5ff"></path><path d="M900 229.2L900 215.7L857.8 259.7Z" fill="#a7e1fe" stroke="#a7e1fe"></path><path d="M288.3 0L202.5 56.1L313.3 35.1Z" fill="#bce5ff" stroke="#bce5ff"></path><path d="M203.8 67.6L136.8 131.5L182.5 127.6Z" fill="#9cdffd" stroke="#9cdffd"></path><path d="M897.8 458.9L900 399.9L828.8 444.8Z" fill="#b7e4ff" stroke="#b7e4ff"></path><path d="M835.8 542.5L862.5 496.4L843.5 491.5Z" fill="#b7e4ff" stroke="#b7e4ff"></path><path d="M843.5 491.5L897.8 458.9L828.8 444.8Z" fill="#ade2fe" stroke="#ade2fe"></path><path d="M144.5 476.4L260 462.5L152.8 403.8Z" fill="#b2e3ff" stroke="#b2e3ff"></path><path d="M292.5 588.5L246.3 600L343.5 600Z" fill="#b2e3ff" stroke="#b2e3ff"></path><path d="M789.3 600L835.8 542.5L739 509.5Z" fill="#bce5ff" stroke="#bce5ff"></path><path d="M800.8 0L785.5 0L779.5 87.1Z" fill="#9cdffd" stroke="#9cdffd"></path><path d="M779.5 87.1L785.5 0L737 82.5Z" fill="#bce5ff" stroke="#bce5ff"></path><path d="M658 0L785.5 0L557.5 -9.5Z" fill="#ceeaff" stroke="#ceeaff"></path><path d="M124.3 313.2L112.5 357.7L146.3 379.8Z" fill="#b7e4ff" stroke="#b7e4ff"></path><path d="M122.5 479.8L144.5 476.4L152.8 403.8Z" fill="#b2e3ff" stroke="#b2e3ff"></path><path d="M35.5 332.3L112.5 357.7L124.3 313.2Z" fill="#bce5ff" stroke="#bce5ff"></path><path d="M112.5 357.7L113.8 367.3L146.3 379.8Z" fill="#ceeaff" stroke="#ceeaff"></path><path d="M900 125.1L859.5 84.5L777.3 121.6Z" fill="#a2e0fe" stroke="#a2e0fe"></path><path d="M520.3 640.5L789.3 600L690 600Z" fill="#a2e0fe" stroke="#a2e0fe"></path><path d="M690 600L789.3 600L739 509.5Z" fill="#a2e0fe" stroke="#a2e0fe"></path><path d="M128.3 486.5L144.5 476.4L122.5 479.8Z" fill="#bce5ff" stroke="#bce5ff"></path><path d="M158 16.5L136.8 131.5L203.8 67.6Z" fill="#ceeaff" stroke="#ceeaff"></path><path d="M35.5 332.3L113.8 367.3L112.5 357.7Z" fill="#9cdffd" stroke="#9cdffd"></path><path d="M819.3 0L800.8 0L779.5 87.1Z" fill="#bce5ff" stroke="#bce5ff"></path><path d="M785.5 0L800.8 0L444.3 -25.5Z" fill="#c1e6ff" stroke="#c1e6ff"></path><path d="M903.8 600L897.8 458.9L862.5 496.4Z" fill="#ade2fe" stroke="#ade2fe"></path><path d="M862.5 496.4L897.8 458.9L843.5 491.5Z" fill="#b2e3ff" stroke="#b2e3ff"></path><path d="M900 215.7L900 125.1L765.5 178.6Z" fill="#b7e4ff" stroke="#b7e4ff"></path><path d="M859.5 84.5L819.3 0L779.5 87.1Z" fill="#a2e0fe" stroke="#a2e0fe"></path><path d="M900 0L819.3 0L859.5 84.5Z" fill="#c5e8ff" stroke="#c5e8ff"></path><path d="M800.8 0L819.3 0L444.3 -25.5Z" fill="#ade2fe" stroke="#ade2fe"></path><path d="M144.5 476.4L192.3 581.5L248.3 515.9Z" fill="#ceeaff" stroke="#ceeaff"></path><path d="M122.5 479.8L152.8 403.8L88.8 413.4Z" fill="#9cdffd" stroke="#9cdffd"></path><path d="M144.5 476.4L115.8 521.5L192.3 581.5Z" fill="#ceeaff" stroke="#ceeaff"></path><path d="M152.8 403.8L131 387.8L88.8 413.4Z" fill="#ceeaff" stroke="#ceeaff"></path><path d="M900 125.1L891.8 95.1L859.5 84.5Z" fill="#bce5ff" stroke="#bce5ff"></path><path d="M88.8 413.4L131 387.8L113.8 367.3Z" fill="#c5e8ff" stroke="#c5e8ff"></path><path d="M194 600L196.8 600L192.3 581.5Z" fill="#a2e0fe" stroke="#a2e0fe"></path><path d="M194 600L192.3 581.5L68.5 600Z" fill="#c1e6ff" stroke="#c1e6ff"></path><path d="M192.3 581.5L196.8 600L246.3 600Z" fill="#cae9ff" stroke="#cae9ff"></path><path d="M246.3 600L0 643.5L520.3 640.5Z" fill="#a7e1fe" stroke="#a7e1fe"></path><path d="M903.8 600L937.8 414.3L897.8 458.9Z" fill="#cae9ff" stroke="#cae9ff"></path><path d="M897.8 458.9L937.8 414.3L900 399.9Z" fill="#b2e3ff" stroke="#b2e3ff"></path><path d="M900 399.9L937.8 414.3L900 383.4Z" fill="#a7e1fe" stroke="#a7e1fe"></path><path d="M900 383.4L937.8 414.3L900 381.3Z" fill="#b2e3ff" stroke="#b2e3ff"></path><path d="M900 381.3L937.8 414.3L900 350.8Z" fill="#bce5ff" stroke="#bce5ff"></path><path d="M900 350.8L937.8 414.3L900 236.6Z" fill="#c1e6ff" stroke="#c1e6ff"></path><path d="M900 236.6L937.8 414.3L900 229.2Z" fill="#a2e0fe" stroke="#a2e0fe"></path><path d="M900 229.2L937.8 414.3L900 215.7Z" fill="#b2e3ff" stroke="#b2e3ff"></path><path d="M900 215.7L937.8 414.3L900 125.1Z" fill="#ade2fe" stroke="#ade2fe"></path><path d="M115.8 521.5L144.5 476.4L128.3 486.5Z" fill="#9cdffd" stroke="#9cdffd"></path><path d="M196.8 600L0 643.5L246.3 600Z" fill="#b7e4ff" stroke="#b7e4ff"></path><path d="M40.5 299.2L124.3 313.2L129.8 258.7Z" fill="#c1e6ff" stroke="#c1e6ff"></path><path d="M35.5 332.3L88.8 413.4L113.8 367.3Z" fill="#9cdffd" stroke="#9cdffd"></path><path d="M91.8 112.1L97.5 151.5L136.8 131.5Z" fill="#c5e8ff" stroke="#c5e8ff"></path><path d="M136.8 131.5L97.5 151.5L182.8 208.2Z" fill="#ade2fe" stroke="#ade2fe"></path><path d="M937.8 414.3L900 70.5L900 125.1Z" fill="#9cdffd" stroke="#9cdffd"></path><path d="M900 125.1L900 70.5L891.8 95.1Z" fill="#a7e1fe" stroke="#a7e1fe"></path><path d="M891.8 95.1L900 70.5L859.5 84.5Z" fill="#b2e3ff" stroke="#b2e3ff"></path><path d="M162 0L158 16.5L202.5 56.1Z" fill="#ade2fe" stroke="#ade2fe"></path><path d="M202.5 56.1L158 16.5L203.8 67.6Z" fill="#9cdffd" stroke="#9cdffd"></path><path d="M162 0L202.5 56.1L288.3 0Z" fill="#b7e4ff" stroke="#b7e4ff"></path><path d="M72.5 505.9L115.8 521.5L122.5 479.8Z" fill="#bce5ff" stroke="#bce5ff"></path><path d="M122.5 479.8L115.8 521.5L128.3 486.5Z" fill="#b7e4ff" stroke="#b7e4ff"></path><path d="M26.3 423.4L77.8 438.9L88.8 413.4Z" fill="#a7e1fe" stroke="#a7e1fe"></path><path d="M88.8 413.4L77.8 438.9L122.5 479.8Z" fill="#c1e6ff" stroke="#c1e6ff"></path><path d="M158 16.5L91.8 112.1L136.8 131.5Z" fill="#a2e0fe" stroke="#a2e0fe"></path><path d="M97.5 151.5L69.3 168.6L129.8 258.7Z" fill="#a7e1fe" stroke="#a7e1fe"></path><path d="M444.3 -25.5L162 0L288.3 0Z" fill="#c5e8ff" stroke="#c5e8ff"></path><path d="M158 16.5L102.5 0L91.8 112.1Z" fill="#c1e6ff" stroke="#c1e6ff"></path><path d="M91.8 112.1L69.3 168.6L97.5 151.5Z" fill="#b2e3ff" stroke="#b2e3ff"></path><path d="M789.3 600L869.5 600L835.8 542.5Z" fill="#cae9ff" stroke="#cae9ff"></path><path d="M835.8 542.5L900 600L862.5 496.4Z" fill="#ceeaff" stroke="#ceeaff"></path><path d="M520.3 640.5L869.5 600L789.3 600Z" fill="#bce5ff" stroke="#bce5ff"></path><path d="M0 242.3L40.5 299.2L129.8 258.7Z" fill="#b7e4ff" stroke="#b7e4ff"></path><path d="M40.5 299.2L35.5 332.3L124.3 313.2Z" fill="#c1e6ff" stroke="#c1e6ff"></path><path d="M77.8 438.9L72.5 505.9L122.5 479.8Z" fill="#cae9ff" stroke="#cae9ff"></path><path d="M115.8 521.5L68.5 600L192.3 581.5Z" fill="#c5e8ff" stroke="#c5e8ff"></path><path d="M47.5 486.5L72.5 505.9L77.8 438.9Z" fill="#b2e3ff" stroke="#b2e3ff"></path><path d="M900 70.5L900 0L859.5 84.5Z" fill="#b7e4ff" stroke="#b7e4ff"></path><path d="M819.3 0L900 0L444.3 -25.5Z" fill="#b7e4ff" stroke="#b7e4ff"></path><path d="M937.8 414.3L900 0L900 70.5Z" fill="#cae9ff" stroke="#cae9ff"></path><path d="M900 600.5L900 600L869.5 600Z" fill="#9cdffd" stroke="#9cdffd"></path><path d="M869.5 600L900 600L835.8 542.5Z" fill="#a7e1fe" stroke="#a7e1fe"></path><path d="M520.3 640.5L900 600.5L869.5 600Z" fill="#c1e6ff" stroke="#c1e6ff"></path><path d="M900 600L903.8 600L862.5 496.4Z" fill="#a2e0fe" stroke="#a2e0fe"></path><path d="M900 600.5L903.8 600L900 600Z" fill="#ceeaff" stroke="#ceeaff"></path><path d="M26.3 423.4L47.5 486.5L77.8 438.9Z" fill="#cae9ff" stroke="#cae9ff"></path><path d="M35.5 332.3L26.3 423.4L88.8 413.4Z" fill="#a2e0fe" stroke="#a2e0fe"></path><path d="M162 0L102.5 0L158 16.5Z" fill="#cae9ff" stroke="#cae9ff"></path><path d="M0 223.2L0 242.3L69.3 168.6Z" fill="#a2e0fe" stroke="#a2e0fe"></path><path d="M69.3 168.6L0 242.3L129.8 258.7Z" fill="#9cdffd" stroke="#9cdffd"></path><path d="M444.3 -25.5L102.5 0L162 0Z" fill="#a7e1fe" stroke="#a7e1fe"></path><path d="M0 223.2L69.3 168.6L0 207.7Z" fill="#bce5ff" stroke="#bce5ff"></path><path d="M40.5 299.2L0 242.3L35.5 332.3Z" fill="#ade2fe" stroke="#ade2fe"></path><path d="M35.5 332.3L-14.7 375.3L26.3 423.4Z" fill="#b7e4ff" stroke="#b7e4ff"></path><path d="M0 207.7L69.3 168.6L3.3 175.7Z" fill="#ade2fe" stroke="#ade2fe"></path><path d="M3.3 175.7L69.3 168.6L-7.7 135.5Z" fill="#ceeaff" stroke="#ceeaff"></path><path d="M444.3 -25.5L84.8 0L102.5 0Z" fill="#ade2fe" stroke="#ade2fe"></path><path d="M102.5 0L84.8 0L91.8 112.1Z" fill="#ceeaff" stroke="#ceeaff"></path><path d="M0 118.6L69.3 168.6L91.8 112.1Z" fill="#a7e1fe" stroke="#a7e1fe"></path><path d="M-34.7 88.1L0 242.3L0 223.2Z" fill="#9cdffd" stroke="#9cdffd"></path><path d="M-34.7 88.1L-14.7 375.3L0 242.3Z" fill="#b2e3ff" stroke="#b2e3ff"></path><path d="M0 242.3L-14.7 375.3L35.5 332.3Z" fill="#cae9ff" stroke="#cae9ff"></path><path d="M26.3 423.4L0 456.9L47.5 486.5Z" fill="#c5e8ff" stroke="#c5e8ff"></path><path d="M-20.7 434.9L0 447.8L26.3 423.4Z" fill="#b7e4ff" stroke="#b7e4ff"></path><path d="M57.3 600L72.5 505.9L0 600Z" fill="#cae9ff" stroke="#cae9ff"></path><path d="M57.3 600L68.5 600L72.5 505.9Z" fill="#ceeaff" stroke="#ceeaff"></path><path d="M72.5 505.9L68.5 600L115.8 521.5Z" fill="#b2e3ff" stroke="#b2e3ff"></path><path d="M194 600L0 643.5L196.8 600Z" fill="#cae9ff" stroke="#cae9ff"></path><path d="M-20.7 434.9L0 456.9L0 447.8Z" fill="#c1e6ff" stroke="#c1e6ff"></path><path d="M0 447.8L0 456.9L26.3 423.4Z" fill="#9cdffd" stroke="#9cdffd"></path><path d="M3.3 175.7L-7.7 135.5L0 207.7Z" fill="#b7e4ff" stroke="#b7e4ff"></path><path d="M0 207.7L-34.7 88.1L0 223.2Z" fill="#b2e3ff" stroke="#b2e3ff"></path><path d="M0 52.5L0 118.6L91.8 112.1Z" fill="#a2e0fe" stroke="#a2e0fe"></path><path d="M-20.7 434.9L0 483.4L0 456.9Z" fill="#c1e6ff" stroke="#c1e6ff"></path><path d="M0 456.9L0 483.4L47.5 486.5Z" fill="#bce5ff" stroke="#bce5ff"></path><path d="M0 600L72.5 505.9L47.5 486.5Z" fill="#ceeaff" stroke="#ceeaff"></path><path d="M68.5 600L0 643.5L194 600Z" fill="#c1e6ff" stroke="#c1e6ff"></path><path d="M0 118.6L-7.7 135.5L69.3 168.6Z" fill="#ade2fe" stroke="#ade2fe"></path><path d="M-14.7 375.3L-20.7 434.9L26.3 423.4Z" fill="#cae9ff" stroke="#cae9ff"></path><path d="M-34.7 88.1L-20.7 434.9L-14.7 375.3Z" fill="#a7e1fe" stroke="#a7e1fe"></path><path d="M84.8 0L0 52.5L91.8 112.1Z" fill="#c5e8ff" stroke="#c5e8ff"></path><path d="M0 118.6L-34.7 88.1L-7.7 135.5Z" fill="#cae9ff" stroke="#cae9ff"></path><path d="M444.3 -25.5L17.3 0L84.8 0Z" fill="#9cdffd" stroke="#9cdffd"></path><path d="M84.8 0L17.3 0L0 52.5Z" fill="#bce5ff" stroke="#bce5ff"></path><path d="M0 10.1L-34.7 88.1L0 52.5Z" fill="#c1e6ff" stroke="#c1e6ff"></path><path d="M0 52.5L-34.7 88.1L0 118.6Z" fill="#bce5ff" stroke="#bce5ff"></path><path d="M-7.7 135.5L-34.7 88.1L0 207.7Z" fill="#cae9ff" stroke="#cae9ff"></path><path d="M17.3 0L0 10.1L0 52.5Z" fill="#a7e1fe" stroke="#a7e1fe"></path><path d="M444.3 -25.5L0 0L17.3 0Z" fill="#cae9ff" stroke="#cae9ff"></path><path d="M17.3 0L0 0L0 10.1Z" fill="#b7e4ff" stroke="#b7e4ff"></path><path d="M0 10.1L0 0L-34.7 88.1Z" fill="#b7e4ff" stroke="#b7e4ff"></path><path d="M0 483.4L0 600L47.5 486.5Z" fill="#a2e0fe" stroke="#a2e0fe"></path><path d="M57.3 600L0 643.5L68.5 600Z" fill="#cae9ff" stroke="#cae9ff"></path><path d="M-20.7 434.9L0 600L0 483.4Z" fill="#c1e6ff" stroke="#c1e6ff"></path><path d="M-20.7 434.9L0 643.5L0 600Z" fill="#ade2fe" stroke="#ade2fe"></path><path d="M0 600L0 643.5L57.3 600Z" fill="#cae9ff" stroke="#cae9ff"></path></g></svg>