<svg id="visual" viewBox="0 0 900 600" width="900" height="600" xmlns="http://www.w3.org/2000/svg" xmlns:xlink="http://www.w3.org/1999/xlink" version="1.1"><rect x="0" y="0" width="900" height="600" fill="#fff"></rect><path d="M0 453L60 468L120 458L180 447L240 454L300 458L360 453L420 460L480 459L540 456L600 462L660 446L720 473L780 457L840 449L900 461L900 601L840 601L780 601L720 601L660 601L600 601L540 601L480 601L420 601L360 601L300 601L240 601L180 601L120 601L60 601L0 601Z" fill="#c2fffd"></path><path d="M0 471L60 469L120 466L180 485L240 490L300 487L360 473L420 490L480 481L540 480L600 470L660 470L720 479L780 469L840 487L900 473L900 601L840 601L780 601L720 601L660 601L600 601L540 601L480 601L420 601L360 601L300 601L240 601L180 601L120 601L60 601L0 601Z" fill="#93e3ed"></path><path d="M0 496L60 482L120 508L180 487L240 502L300 505L360 505L420 497L480 491L540 482L600 485L660 491L720 494L780 508L840 508L900 507L900 601L840 601L780 601L720 601L660 601L600 601L540 601L480 601L420 601L360 601L300 601L240 601L180 601L120 601L60 601L0 601Z" fill="#64c7df"></path><path d="M0 506L60 509L120 498L180 505L240 516L300 518L360 515L420 517L480 508L540 512L600 513L660 512L720 517L780 512L840 503L900 506L900 601L840 601L780 601L720 601L660 601L600 601L540 601L480 601L420 601L360 601L300 601L240 601L180 601L120 601L60 601L0 601Z" fill="#30aad2"></path><path d="M0 538L60 525L120 525L180 517L240 523L300 527L360 523L420 529L480 536L540 531L600 533L660 524L720 533L780 535L840 536L900 517L900 601L840 601L780 601L720 601L660 601L600 601L540 601L480 601L420 601L360 601L300 601L240 601L180 601L120 601L60 601L0 601Z" fill="#008cc5"></path><path d="M0 543L60 545L120 546L180 554L240 542L300 555L360 540L420 554L480 547L540 537L600 540L660 549L720 549L780 546L840 537L900 535L900 601L840 601L780 601L720 601L660 601L600 601L540 601L480 601L420 601L360 601L300 601L240 601L180 601L120 601L60 601L0 601Z" fill="#006fb5"></path><path d="M0 562L60 556L120 567L180 569L240 563L300 558L360 557L420 556L480 562L540 565L600 556L660 559L720 553L780 559L840 566L900 571L900 601L840 601L780 601L720 601L660 601L600 601L540 601L480 601L420 601L360 601L300 601L240 601L180 601L120 601L60 601L0 601Z" fill="#0050a1"></path><path d="M0 575L60 583L120 580L180 584L240 579L300 580L360 586L420 586L480 581L540 575L600 583L660 573L720 577L780 574L840 577L900 577L900 601L840 601L780 601L720 601L660 601L600 601L540 601L480 601L420 601L360 601L300 601L240 601L180 601L120 601L60 601L0 601Z" fill="#003187"></path></svg>