<svg id="visual" viewBox="0 0 900 600" width="900" height="600" xmlns="http://www.w3.org/2000/svg" xmlns:xlink="http://www.w3.org/1999/xlink" version="1.1"><rect x="0" y="0" width="900" height="600" fill="#cdf4ff"></rect><path d="M471 600L470 0L900 0L900 600Z" fill="#0abcf5"></path><path d="M525 600L462 0L900 0L900 600Z" fill="#00adef"></path><path d="M555 600L504 0L900 0L900 600Z" fill="#009ee7"></path><path d="M555 600L580 0L900 0L900 600Z" fill="#008edf"></path><path d="M613 600L598 0L900 0L900 600Z" fill="#007fd5"></path><path d="M635 600L641 0L900 0L900 600Z" fill="#006fca"></path><path d="M698 600L702 0L900 0L900 600Z" fill="#005fbe"></path><path d="M734 600L717 0L900 0L900 600Z" fill="#004fb1"></path><path d="M757 600L780 0L900 0L900 600Z" fill="#003fa4"></path><path d="M821 600L810 0L900 0L900 600Z" fill="#002f96"></path><path d="M845 600L857 0L900 0L900 600Z" fill="#001d87"></path></svg>